<?xml version="1.0" standalone="no"?><svg xmlns="http://www.w3.org/2000/svg" viewBox="0 0 1440 320"><path fill="#5000ca" fill-opacity="1" d="M0,288L30,256C60,224,120,160,180,149.3C240,139,300,181,360,208C420,235,480,245,540,224C600,203,660,149,720,117.3C780,85,840,75,900,69.3C960,64,1020,64,1080,80C1140,96,1200,128,1260,170.7C1320,213,1380,267,1410,293.3L1440,320L1440,320L1410,320C1380,320,1320,320,1260,320C1200,320,1140,320,1080,320C1020,320,960,320,900,320C840,320,780,320,720,320C660,320,600,320,540,320C480,320,420,320,360,320C300,320,240,320,180,320C120,320,60,320,30,320L0,320Z"></path></svg>